name Walk2.mot
datacolumns 19
datarows 25
range 1.24600000 1.27000000
endheader

                time	   L_ground_force_vx	   L_ground_force_vy	   L_ground_force_vz	   L_ground_force_px	   L_ground_force_py	   L_ground_force_pz	   R_ground_force_vx	   R_ground_force_vy	   R_ground_force_vz	   R_ground_force_px	   R_ground_force_py	   R_ground_force_pz	   L_ground_torque_x	   L_ground_torque_y	   L_ground_torque_z	   R_ground_torque_x	   R_ground_torque_y	   R_ground_torque_z	
          1.24600000	         38.40900180	        512.31995719	         23.00196806	         -0.13710296	          0.00000000	         -0.03942078	         -0.05409451	          0.66676701	          0.04473580	          0.00054529	          0.00000000	          0.00006580	          0.00000000	          0.67338645	          0.00000000	          0.00000000	          0.00580023	          0.00000000	
          1.24700000	         39.19612715	        514.76127626	         23.22207238	         -0.13703636	          0.00000000	         -0.03940775	         -0.05650047	          0.66237167	          0.04349239	          0.00052673	          0.00000000	          0.00006324	          0.00000000	          0.67774780	          0.00000000	          0.00000000	          0.00630959	          0.00000000	
          1.24800000	         39.98690608	        517.19918353	         23.43857459	         -0.13696840	          0.00000000	         -0.03939350	         -0.05889667	          0.65483237	          0.04195383	          0.00050426	          0.00000000	          0.00006019	          0.00000000	          0.68202176	          0.00000000	          0.00000000	          0.00684023	          0.00000000	
          1.24900000	         40.78126613	        519.63262175	         23.65108634	         -0.13689899	          0.00000000	         -0.03937799	         -0.06127230	          0.64388807	          0.04009902	          0.00047763	          0.00000000	          0.00005660	          0.00000000	          0.68619087	          0.00000000	          0.00000000	          0.00739193	          0.00000000	
          1.25000000	         41.57914025	        522.06052080	         23.85922222	         -0.13682810	          0.00000000	         -0.03936117	         -0.06361564	          0.62926758	          0.03790626	          0.00044655	          0.00000000	          0.00005245	          0.00000000	          0.69023890	          0.00000000	          0.00000000	          0.00796436	          0.00000000	
          1.25100000	         42.38046581	        524.48179828	         24.06260135	         -0.13675566	          0.00000000	         -0.03934300	         -0.06591400	          0.61068965	          0.03535318	          0.00041073	          0.00000000	          0.00004769	          0.00000000	          0.69415088	          0.00000000	          0.00000000	          0.00855710	          0.00000000	
          1.25200000	         43.18518422	        526.89536006	         24.26084956	         -0.13668161	          0.00000000	         -0.03932344	         -0.06815372	          0.58786329	          0.03241685	          0.00036989	          0.00000000	          0.00004230	          0.00000000	          0.69791280	          0.00000000	          0.00000000	          0.00916958	          0.00000000	
          1.25300000	         43.99324097	        529.30010113	         24.45360170	         -0.13660590	          0.00000000	         -0.03930243	         -0.07032010	          0.56048795	          0.02907379	          0.00032373	          0.00000000	          0.00003622	          0.00000000	          0.70151116	          0.00000000	          0.00000000	          0.00980110	          0.00000000	
          1.25400000	         44.80458590	        531.69490707	         24.64050332	         -0.13652847	          0.00000000	         -0.03927994	         -0.07239737	          0.52825400	          0.02530000	          0.00027194	          0.00000000	          0.00002944	          0.00000000	          0.70493244	          0.00000000	          0.00000000	          0.01045083	          0.00000000	
          1.25500000	         45.61917364	        534.07865665	         24.82121147	         -0.13644927	          0.00000000	         -0.03925591	         -0.07436868	          0.49084307	          0.02107104	          0.00021422	          0.00000000	          0.00002190	          0.00000000	          0.70816275	          0.00000000	          0.00000000	          0.01111778	          0.00000000	
          1.25600000	         46.43696378	        536.45022541	         24.99539439	         -0.13636824	          0.00000000	         -0.03923027	         -0.07621603	          0.44792859	          0.01636208	          0.00015025	          0.00000000	          0.00001357	          0.00000000	          0.71118771	          0.00000000	          0.00000000	          0.01180079	          0.00000000	
          1.25700000	         47.25792038	        538.80848975	         25.16273048	         -0.13628534	          0.00000000	         -0.03920299	         -0.07792029	          0.39917637	          0.01114797	          0.00007971	          0.00000000	          0.00000442	          0.00000000	          0.71399275	          0.00000000	          0.00000000	          0.01249852	          0.00000000	
          1.25800000	         48.08201057	        541.15233076	         25.32290713	         -0.13620051	          0.00000000	         -0.03917400	         -0.07946111	          0.34424529	          0.00540330	          0.00000229	          0.00000000	         -0.00000561	          0.00000000	          0.71656365	          0.00000000	          0.00000000	          0.01320948	          0.00000000	
          1.25900000	         48.90920242	        543.48063734	         25.47562001	         -0.13611372	          0.00000000	         -0.03914326	         -0.08081694	          0.28278803	         -0.00089751	         -0.00008233	          0.00000000	         -0.00001655	          0.00000000	          0.71888717	          0.00000000	          0.00000000	          0.01393195	          0.00000000	
          1.26000000	         49.73946250	        545.79230794	         25.62057320	         -0.13602491	          0.00000000	         -0.03911072	         -0.08196500	          0.21445197	         -0.00778011	         -0.00017448	          0.00000000	         -0.00002843	          0.00000000	          0.72095155	          0.00000000	          0.00000000	          0.01466402	          0.00000000	
          1.26100000	         50.57275383	        548.08625089	         25.75747991	         -0.13593406	          0.00000000	         -0.03907633	         -0.08288123	          0.13888011	         -0.01527015	         -0.00027447	          0.00000000	         -0.00004130	          0.00000000	          0.72274671	          0.00000000	          0.00000000	          0.01540355	          0.00000000	
          1.26200000	         51.40903454	        550.36138292	         25.88606373	         -0.13584113	          0.00000000	         -0.03904006	         -0.08354032	          0.05571217	         -0.02339314	         -0.00038262	          0.00000000	         -0.00005520	          0.00000000	          0.72426417	          0.00000000	          0.00000000	          0.01614819	          0.00000000	
          1.26300000	         52.24825718	        552.61662649	         26.00605999	         -0.13574610	          0.00000000	         -0.03900187	         -0.08391563	         -0.03541425	         -0.03217435	         -0.00049924	          0.00000000	         -0.00007016	          0.00000000	          0.72549675	          0.00000000	          0.00000000	          0.01689534	          0.00000000	
          1.26400000	         53.09036863	        554.85090668	         26.11721715	         -0.13564894	          0.00000000	         -0.03896174	         -0.08397925	         -0.13486233	         -0.04163867	         -0.00062463	          0.00000000	         -0.00008622	          0.00000000	          0.72643837	          0.00000000	          0.00000000	          0.01764213	          0.00000000	
          1.26500000	         53.93531015	        557.06314862	         26.21929762	         -0.13554963	          0.00000000	         -0.03891962	         -0.08370197	         -0.24299465	         -0.05181051	         -0.00075910	          0.00000000	         -0.00010342	          0.00000000	          0.72708385	          0.00000000	          0.00000000	          0.01838547	          0.00000000	
          1.26600000	         54.78301751	        559.25227577	         26.31207796	         -0.13544815	          0.00000000	         -0.03887551	         -0.08305323	         -0.36017164	         -0.06271358	         -0.00090292	          0.00000000	         -0.00012178	          0.00000000	          0.72742901	          0.00000000	          0.00000000	          0.01912194	          0.00000000	
          1.26700000	         55.63342068	        561.41720918	         26.39534814	         -0.13534448	          0.00000000	         -0.03882937	         -0.08200121	         -0.48674982	         -0.07437083	         -0.00105638	          0.00000000	         -0.00014136	          0.00000000	          0.72747091	          0.00000000	          0.00000000	          0.01984789	          0.00000000	
          1.26800000	         56.48644277	        563.55686728	         26.46891035	         -0.13523860	          0.00000000	         -0.03878119	         -0.08051277	         -0.62308005	         -0.08680418	         -0.00121974	          0.00000000	         -0.00016216	          0.00000000	          0.72720833	          0.00000000	          0.00000000	          0.02055932	          0.00000000	
          1.26900000	         57.34199805	        565.67016561	         26.53257813	         -0.13513051	          0.00000000	         -0.03873097	         -0.07855350	         -0.76950551	         -0.10003440	         -0.00139324	          0.00000000	         -0.00018423	          0.00000000	          0.72664218	          0.00000000	          0.00000000	          0.02125195	          0.00000000	
          1.27000000	         58.19998953	        567.75601609	         26.58617632	         -0.13502019	          0.00000000	         -0.03867868	         -0.07608775	         -0.92635957	         -0.11408092	         -0.00157711	          0.00000000	         -0.00020759	          0.00000000	          0.72577583	          0.00000000	          0.00000000	          0.02192117	          0.00000000	
